<?xml version="1.0" encoding="UTF-8" standalone="no"?>
<!-- Created with Inkscape (http://www.inkscape.org/) -->

<svg
   xmlns:dc="http://purl.org/dc/elements/1.1/"
   xmlns:cc="http://creativecommons.org/ns#"
   xmlns:rdf="http://www.w3.org/1999/02/22-rdf-syntax-ns#"
   xmlns:svg="http://www.w3.org/2000/svg"
   xmlns="http://www.w3.org/2000/svg"
   xmlns:sodipodi="http://sodipodi.sourceforge.net/DTD/sodipodi-0.dtd"
   xmlns:inkscape="http://www.inkscape.org/namespaces/inkscape"
   width="1023.3063"
   height="1023.3063"
   id="svg2"
   version="1.1"
   inkscape:version="0.47 r22583"
   style="display:inline"
   sodipodi:docname="man_at_work_bis_2.svg">
  <defs
     id="defs4">
    <inkscape:perspective
       sodipodi:type="inkscape:persp3d"
       inkscape:vp_x="0 : 526.18109 : 1"
       inkscape:vp_y="0 : 1000 : 0"
       inkscape:vp_z="744.09448 : 526.18109 : 1"
       inkscape:persp3d-origin="372.04724 : 350.78739 : 1"
       id="perspective10" />
    <inkscape:perspective
       id="perspective2884"
       inkscape:persp3d-origin="0.5 : 0.33333333 : 1"
       inkscape:vp_z="1 : 0.5 : 1"
       inkscape:vp_y="0 : 1000 : 0"
       inkscape:vp_x="0 : 0.5 : 1"
       sodipodi:type="inkscape:persp3d" />
    <inkscape:perspective
       id="perspective2916"
       inkscape:persp3d-origin="0.5 : 0.33333333 : 1"
       inkscape:vp_z="1 : 0.5 : 1"
       inkscape:vp_y="0 : 1000 : 0"
       inkscape:vp_x="0 : 0.5 : 1"
       sodipodi:type="inkscape:persp3d" />
    <inkscape:perspective
       id="perspective3757"
       inkscape:persp3d-origin="0.5 : 0.33333333 : 1"
       inkscape:vp_z="1 : 0.5 : 1"
       inkscape:vp_y="0 : 1000 : 0"
       inkscape:vp_x="0 : 0.5 : 1"
       sodipodi:type="inkscape:persp3d" />
    <inkscape:perspective
       id="perspective3792"
       inkscape:persp3d-origin="0.5 : 0.33333333 : 1"
       inkscape:vp_z="1 : 0.5 : 1"
       inkscape:vp_y="0 : 1000 : 0"
       inkscape:vp_x="0 : 0.5 : 1"
       sodipodi:type="inkscape:persp3d" />
    <inkscape:perspective
       id="perspective3825"
       inkscape:persp3d-origin="0.5 : 0.33333333 : 1"
       inkscape:vp_z="1 : 0.5 : 1"
       inkscape:vp_y="0 : 1000 : 0"
       inkscape:vp_x="0 : 0.5 : 1"
       sodipodi:type="inkscape:persp3d" />
    <inkscape:perspective
       id="perspective3825-4"
       inkscape:persp3d-origin="0.5 : 0.33333333 : 1"
       inkscape:vp_z="1 : 0.5 : 1"
       inkscape:vp_y="0 : 1000 : 0"
       inkscape:vp_x="0 : 0.5 : 1"
       sodipodi:type="inkscape:persp3d" />
    <inkscape:perspective
       id="perspective3825-2"
       inkscape:persp3d-origin="0.5 : 0.33333333 : 1"
       inkscape:vp_z="1 : 0.5 : 1"
       inkscape:vp_y="0 : 1000 : 0"
       inkscape:vp_x="0 : 0.5 : 1"
       sodipodi:type="inkscape:persp3d" />
    <inkscape:perspective
       id="perspective4233"
       inkscape:persp3d-origin="0.5 : 0.33333333 : 1"
       inkscape:vp_z="1 : 0.5 : 1"
       inkscape:vp_y="0 : 1000 : 0"
       inkscape:vp_x="0 : 0.5 : 1"
       sodipodi:type="inkscape:persp3d" />
    <inkscape:perspective
       id="perspective3231"
       inkscape:persp3d-origin="0.5 : 0.33333333 : 1"
       inkscape:vp_z="1 : 0.5 : 1"
       inkscape:vp_y="0 : 1000 : 0"
       inkscape:vp_x="0 : 0.5 : 1"
       sodipodi:type="inkscape:persp3d" />
  </defs>
  <sodipodi:namedview
     id="base"
     pagecolor="#ffffff"
     bordercolor="#666666"
     borderopacity="1.0"
     inkscape:pageopacity="0.0"
     inkscape:pageshadow="2"
     inkscape:zoom="0.54421378"
     inkscape:cx="507.97342"
     inkscape:cy="491.47239"
     inkscape:document-units="px"
     inkscape:current-layer="layer4"
     showgrid="false"
     inkscape:window-width="1280"
     inkscape:window-height="996"
     inkscape:window-x="0"
     inkscape:window-y="0"
     inkscape:window-maximized="1"
     showguides="true"
     inkscape:guide-bbox="true" />
  <metadata
     id="metadata7">
    <rdf:RDF>
      <cc:Work
         rdf:about="">
        <dc:format>image/svg+xml</dc:format>
        <dc:type
           rdf:resource="http://purl.org/dc/dcmitype/StillImage" />
        <dc:title></dc:title>
      </cc:Work>
    </rdf:RDF>
  </metadata>
  <g
     inkscape:groupmode="layer"
     id="layer4"
     inkscape:label="jaune"
     style="display:inline"
     transform="translate(174.95041,-18.58859)">
    <rect
       transform="matrix(0.70710678,0.70710678,-0.70710678,0.70710678,0,0)"
       ry="36.398502"
       y="-231.8199"
       x="244.3497"
       height="737.34528"
       width="737.34528"
       id="rect2200"
       style="fill:#ffff00;fill-opacity:1;stroke:#000000;stroke-width:10.62992096;stroke-linecap:round;stroke-linejoin:round;stroke-miterlimit:4;stroke-opacity:1;stroke-dasharray:none" />
    <g
       style="display:inline"
       id="g4066"
       transform="translate(-152.90025,33.288695)">
      <g
         style="stroke:#ffff00;stroke-width:0.85826886;stroke-opacity:1;display:inline"
         transform="matrix(1.1278048,0,0,1.2037029,145.49697,-43.214451)"
         id="g3735">
        <path
           style="fill:#000000;fill-opacity:1;stroke:#ffff00;stroke-width:0.8583833px;stroke-linecap:butt;stroke-linejoin:miter;stroke-opacity:1"
           d="m 431.45067,289.77111 5.53066,21.51818 -60.04975,15.04441 c -4.04085,1.01237 -9.52221,-1.07176 -12.46673,-3.28975 -0.90423,-0.68111 -2.8473,-1.34523 -6.12274,-0.52464 l -10.91815,2.04549 -1.10614,-4.99349 c 6.80083,-1.92147 8.6038,-1.5644 11.14811,-2.9653 2.18362,-0.54707 3.69484,-1.66583 4.56542,-2.8001 2.18048,-2.84087 4.67648,-7.8146 9.36956,-8.99039 l 60.04976,-15.04441 z"
           id="path2844"
           sodipodi:nodetypes="ccssccccssc" />
        <g
           style="stroke:#ffff00;stroke-width:0.85826886;stroke-opacity:1;display:inline"
           id="g3707"
           transform="translate(-2.1562973,2.7657124)">
          <path
             sodipodi:nodetypes="ccccccc"
             id="path2927"
             d="m 412.85047,322.24793 c 2.12195,0.35366 2.00534,-28.33341 0.34831,-30.21123 -5.20652,-5.49758 -18.85593,-0.35696 -23.08944,5.20325 l 4.35277,24.77126 -5.89311,1.77706 6.27412,2.79212 18.00735,-4.33246 z"
             style="fill:#211414;fill-opacity:1;stroke:#ffff00;stroke-width:1.71653771;stroke-linecap:round;stroke-linejoin:round;stroke-miterlimit:4;stroke-opacity:1;stroke-dasharray:none" />
        </g>
      </g>
      <path
         sodipodi:nodetypes="ccccczcc"
         id="path3740"
         d="m 427.05533,364.29374 360.35519,218.6567 c 0.96942,5.31091 -2.35765,5.92967 -5.74683,9.72416 L 421.3085,374.0179 c -13.47262,24.47424 -14.03296,27.96347 -27.15688,53.7076 -54.36572,-39.4566 -109.1704,-66.067 -74.68942,-124.41201 34.48098,-58.34501 134.63388,10.32801 134.63388,10.32801 0,0 -13.45735,27.66785 -27.04075,50.65224 z"
         style="fill:#000000;fill-opacity:1;stroke:#000000;stroke-width:0.69002265px;stroke-linecap:butt;stroke-linejoin:miter;stroke-opacity:1;display:inline" />
      <path
         sodipodi:nodetypes="cccccccccsccccscsscssscccssscsscscc"
         id="path2888"
         d="m 463.35623,372.86147 c -32.0196,6.95731 -52.35333,28.16866 -64.36218,59.53445 -17.05291,33.31152 -36.73001,75.83115 -22.54197,130.36119 l 10.19829,29.18665 c 19.57114,49.85469 54.72042,38.52823 88.50561,6.46164 l 57.92596,-107.61995 -36.4719,81.2874 13.94513,65.2589 65.43489,-20.60808 c 0,0 -0.84422,-107.05033 2.1454,-111.05461 11.08853,-14.85198 -23.76312,-74.70733 -64.36217,-36.63658 l -53.63516,61.82423 47.19893,-87.01187 81.52544,25.18765 c 0,0 15.49722,-0.95543 22.72839,-18.22211 13.84095,-33.04959 3.95687,-105.01057 3.95687,-105.01057 -11.90281,3.45375 -15.39569,4.64446 -29.66368,7.71457 -4.20618,0.90507 0.83302,65.14281 -6.67591,63.99792 -7.50892,-1.14489 -81.52543,-25.18764 -81.52543,-25.18764 1.88744,-2.04554 0.0855,-25.25906 7.10729,-26.42368 13.80831,-2.2902 18.58558,4.07295 24.49617,-8.55599 1.68697,-3.60449 0.048,-10.68125 0.58268,-16.4 0.21393,-2.2884 5.83957,-2.41038 6.70234,-4.4543 -5.46639,-13.5595 0.41312,-16.72964 -3.91654,-25.8419 -2.08765,-4.32394 -0.68055,-6.38636 -3.69247,-9.86192 -0.33005,-1.94401 18.18557,-4.352 19.77792,-6.50845 0.20898,-0.28301 -0.18657,-2.19282 -2.99019,-2.38117 -4.94088,-0.33197 -14.20579,1.17547 -17.39096,1.39741 -3.95117,0.27532 -3.42634,-6.32831 -11.66904,-18.19493 -3.30367,-4.52259 -19.08048,-5.41387 -35.4733,-2.01191 -6.76747,1.40445 -20.73379,-0.87504 -26.31607,5.94573 -2.16103,2.64048 -4.12544,19.37611 -1.87695,24.91659 5.98665,24.67144 -1.69657,42.76212 7.68173,52.90072 3.20213,3.46174 0.59861,10.90786 2.65091,16.01061 l -3e-5,0 z"
         style="fill:#000000;fill-opacity:1;stroke:#ffff00;stroke-width:0.99999994;stroke-linecap:butt;stroke-linejoin:miter;stroke-miterlimit:4;stroke-opacity:1;stroke-dasharray:none;display:inline" />
      <path
         sodipodi:nodetypes="cccscccccc"
         id="path3662"
         d="m 529.89972,634.15612 c 0,0 23.32436,-8.5004 29.96138,-9.71475 2.39352,-0.43793 3.60294,31.97769 3.60294,31.97769 8.89539,5.17653 22.30377,2.39982 34.97785,-0.80209 19.89803,-5.02692 37.68168,7.61523 24.56563,32.375 -19.46857,0.0626 -52.21116,-0.41446 -71.67972,-5.66695 l -0.75852,6.4765 -32.23691,-2.83345 c 1.21324,-9.02651 -1.71571,-16.94779 6.82664,-27.92988 l 4.74071,-23.88207 z"
         style="fill:#000000;fill-opacity:1;stroke:#ffbb00;stroke-width:0.99999994;stroke-linecap:butt;stroke-linejoin:miter;stroke-miterlimit:4;stroke-opacity:1;stroke-dasharray:none;display:inline" />
      <path
         sodipodi:nodetypes="ccccscccccc"
         id="path3722"
         d="m 714.38107,612.13737 18.65351,26.02365 30.20053,-2.84943 c 22.6802,-21.87655 37.65605,-19.90855 49.26886,4.32599 0.10872,3.42815 -52.22148,31.23812 -54.05142,27.04773 -1.32118,-3.02542 4.60379,8.42788 4.60379,8.42788 l -36.20159,14.34874 c -9.46779,-10.76723 -19.57945,-20.98172 -22.2357,-37.5958 l -17.63103,-28.1784 27.02522,-13.20917 0.36783,1.65881 z"
         style="fill:#000000;fill-opacity:1;stroke:#ffff00;stroke-width:0.99999994;stroke-linecap:butt;stroke-linejoin:miter;stroke-miterlimit:4;stroke-opacity:1;stroke-dasharray:none;display:inline" />
      <path
         sodipodi:nodetypes="cccccccc"
         id="path3718"
         d="m 578.70611,529.53513 0.0113,54.66533 60.40992,-20.25693 c 21.85707,25.49147 22.42614,47.02742 38.50913,66.35625 l 41.47268,-25.03177 -53.41179,-80.21157 c -4.30556,-6.06946 -8.61114,-5.36478 -12.9167,-7.73215 l -74.07429,12.21084 z"
         style="fill:#000000;fill-opacity:1;stroke:#ffff00;stroke-width:0.99999994;stroke-linecap:butt;stroke-linejoin:miter;stroke-miterlimit:4;stroke-opacity:1;stroke-dasharray:none;display:inline" />
      <path
         sodipodi:nodetypes="csccscccc"
         id="path3716"
         d="m 485.45006,691.98889 c -9.59248,-16.3268 -15.56322,-25.95222 -23.59226,-42.59982 -3.99512,-8.28355 -5.53586,-21.86909 -12.99372,-28.37092 -20.06521,-10.23 -41.02272,-41.02523 -72.03924,-51.25524 -4.8868,-12.58483 -15.27934,-20.61494 -19.2155,-27.47092 -17.8682,-31.1227 -52.49624,16.37744 -52.49624,16.37744 -6.62984,-17.33395 -44.13694,9.43662 -54.28034,33.83481 -27.7462,15.03225 -30.07675,37.42329 -45.94314,100.72383 l 280.56044,-1.23918 z"
         style="fill:#000000;fill-opacity:1;stroke:#000000;stroke-width:1.04925215px;stroke-linecap:butt;stroke-linejoin:miter;stroke-opacity:1;display:inline" />
    </g>
  </g>
  <g
     inkscape:groupmode="layer"
     id="layer1"
     inkscape:label="Calque" />
</svg>
